<svg version="1.1" id="Layer_1" xmlns="http://www.w3.org/2000/svg" xmlns:xlink="http://www.w3.org/1999/xlink" x="0px" y="0px"
	 width="100%" viewBox="0 0 512 512" enable-background="new 0 0 512 512" xml:space="preserve">
<path fill="#0000FF" opacity="1.000000" stroke="none" 
	d="
M1.000000,460.468658 
	C6.365593,451.612488 15.101231,446.959381 22.524195,440.921173 
	C40.535152,426.270111 58.927956,412.089142 77.107964,397.644592 
	C80.643791,394.835266 84.272659,392.628815 88.926483,394.107391 
	C90.948036,394.749664 92.035423,393.777954 93.308479,392.647034 
	C95.917572,390.329193 98.545380,388.029388 101.233955,385.804901 
	C103.709175,383.756989 106.374069,382.298431 109.832886,382.609589 
	C114.236824,383.005707 117.325356,380.877960 119.693115,377.194061 
	C124.633347,369.507843 129.843628,361.994751 134.750015,354.287689 
	C135.753479,352.711426 138.538361,351.163757 136.349243,348.745239 
	C134.067062,346.223877 132.221375,348.562897 130.285782,349.663635 
	C125.186462,352.563385 119.974960,354.665100 113.809341,353.909302 
	C105.549057,352.896790 100.428398,347.786652 96.323792,341.312012 
	C90.819817,332.630005 85.499771,323.829742 80.196198,315.022766 
	C74.298431,305.229126 76.026779,293.202118 84.820572,286.292511 
	C89.564972,282.564667 93.744743,280.155487 93.302193,272.271484 
	C92.611588,259.968689 101.629646,252.732056 111.605606,247.139771 
	C113.900917,245.853104 116.097633,244.538406 119.006012,244.580215 
	C123.030113,244.638077 126.277443,245.365707 127.458778,249.797852 
	C128.621185,254.158936 127.326714,257.625732 123.607178,260.102081 
	C120.569336,262.124603 117.203476,263.712433 114.380989,265.986816 
	C110.176422,269.374847 107.860092,273.738342 111.716095,279.829742 
	C122.192757,296.379761 132.274551,313.179596 142.536545,329.865845 
	C146.057083,335.590302 147.982895,335.870941 150.960510,329.944885 
	C159.122131,313.701721 173.901764,305.147034 188.490524,296.163361 
	C194.632004,292.381470 200.888397,289.294312 208.558563,289.364716 
	C207.926392,284.587341 204.948029,281.690979 202.973938,278.413330 
	C193.990341,263.497864 184.609619,248.821594 175.622681,233.908066 
	C173.503311,230.391037 171.609512,230.264679 168.463120,232.288757 
	C163.721680,235.338974 158.878281,238.258850 153.909653,240.919296 
	C149.562622,243.246948 145.233749,242.126175 142.985031,238.562439 
	C140.539337,234.686600 141.070602,229.880463 144.935760,227.031204 
	C149.470947,223.687988 154.179184,220.410110 159.232147,217.974915 
	C168.939926,213.296356 175.023605,205.015305 181.500961,197.055878 
	C190.901276,185.504715 200.272217,173.929291 209.596771,162.316910 
	C221.418243,147.594986 233.139694,132.792648 244.983047,118.088425 
	C252.777405,108.411270 260.724487,98.857254 268.577271,89.226952 
	C274.326752,82.176018 280.046234,75.100471 285.753052,68.014946 
	C287.547943,65.786453 285.997040,63.984482 284.881714,62.141647 
	C281.390472,56.373146 278.470459,50.489204 280.712891,43.422916 
	C281.472778,41.028324 282.220825,38.611153 283.971619,36.767300 
	C288.760071,31.724300 294.743042,28.169336 301.097382,25.907215 
	C311.355286,22.255438 319.202209,26.680260 326.257538,38.266521 
	C343.432281,66.470818 360.737427,94.595840 378.029053,122.728806 
	C398.100128,155.383865 418.201630,188.020233 438.314148,220.649765 
	C444.493622,230.675018 450.629395,240.730698 457.009064,250.628098 
	C463.722015,261.042542 461.020386,273.108429 450.348175,279.276245 
	C449.057678,280.022095 447.826324,280.871643 446.578674,281.690094 
	C434.471283,289.632355 423.364990,287.371155 416.255798,274.849609 
	C413.926666,270.747345 411.751923,270.258514 407.521240,271.197510 
	C377.620697,277.834137 347.651794,284.161896 317.720734,290.662201 
	C301.389221,294.209045 285.088684,297.898651 268.778320,301.542450 
	C268.493622,301.606049 268.261200,301.903748 267.800629,302.241699 
	C271.166473,307.712830 272.917206,313.660156 272.332764,320.157959 
	C272.110748,322.626678 273.138306,324.160309 275.387634,325.277924 
	C284.930634,330.019501 289.946320,337.553131 289.374512,348.460266 
	C289.262360,350.599976 289.271149,352.469971 291.900574,353.770813 
	C305.150146,360.325684 310.118469,370.461548 306.960327,384.685913 
	C306.315094,387.592010 306.618683,389.290466 309.003784,391.011444 
	C322.802368,400.968079 321.320648,424.190674 306.061920,432.870422 
	C298.568054,437.133209 291.388733,441.945312 283.987732,446.376373 
	C279.396088,449.125458 274.351898,450.465271 269.056335,451.497406 
	C262.114410,452.850403 256.872864,457.998688 250.790985,461.314026 
	C244.096741,464.963135 237.971619,469.674377 230.745041,472.325775 
	C220.587067,476.052704 210.299133,475.538269 199.975281,472.986816 
	C197.244354,472.311890 194.376099,472.089539 191.731873,471.187469 
	C185.439682,469.041046 179.851074,468.624695 174.880112,474.390747 
	C170.879166,479.031616 165.402954,481.891174 162.874420,488.424072 
	C160.164703,495.425171 154.180756,500.860046 148.625427,506.093628 
	C146.044449,508.525146 142.646393,509.406494 138.951279,509.400665 
	C98.618813,509.337158 58.286152,509.391693 17.953678,509.329834 
	C10.202682,509.317963 4.929228,505.185394 1.231616,498.240417 
	C1.000000,485.645782 1.000000,473.291534 1.000000,460.468658 
M368.479675,165.123016 
	C390.008453,199.909012 411.537201,234.695023 433.078247,269.500824 
	C435.707855,268.175079 437.510651,267.350494 439.232574,266.382080 
	C444.157166,263.612549 444.435425,262.593445 441.536652,257.880615 
	C438.670258,253.220444 435.729370,248.606186 432.846161,243.956284 
	C409.955139,207.038498 387.019440,170.148254 364.199219,133.186722 
	C346.079071,103.837791 328.070221,74.419846 310.117340,44.968334 
	C308.509857,42.331326 306.860718,41.950119 304.418274,43.337135 
	C303.121643,44.073444 301.898071,44.950970 300.562988,45.604290 
	C297.642365,47.033512 296.708740,48.516541 298.777954,51.782249 
	C305.612579,62.568863 312.176117,73.531036 318.665375,84.531036 
	C321.719543,89.708145 320.798889,95.173897 316.933472,97.386475 
	C312.275940,100.052475 307.286987,98.159279 303.919556,92.889206 
	C301.661621,89.355453 299.930603,85.376137 295.995178,81.695351 
	C295.514313,82.716560 295.334961,83.416199 294.922241,83.927490 
	C282.119446,99.789009 269.283661,115.623901 256.474030,131.479874 
	C233.973938,159.330795 211.531937,187.228912 188.925812,214.993439 
	C186.716782,217.706528 186.707474,219.524750 188.505493,222.405060 
	C202.212616,244.363007 215.756241,266.423126 229.310120,288.476440 
	C230.655334,290.665192 232.188080,292.031525 234.965179,291.424255 
	C264.708191,284.920441 294.457275,278.444244 324.204315,271.958923 
	C349.105621,266.530060 373.983521,260.989685 398.929260,255.773346 
	C403.252228,254.869400 402.864532,253.246933 401.120514,250.429489 
	C396.059387,242.253479 391.015625,234.066727 385.966187,225.883499 
	C370.381104,200.625961 354.806274,175.362106 339.206146,150.113861 
	C334.150452,141.931412 328.969971,133.825562 323.962769,125.613823 
	C321.476105,121.535713 322.395844,116.007393 325.739655,113.352432 
	C329.200653,110.604416 333.457947,111.221657 337.285278,115.134163 
	C338.197540,116.066711 338.929108,117.201721 339.622314,118.318954 
	C349.158783,133.689102 358.673950,149.072433 368.479675,165.123016 
M191.201782,314.839478 
	C184.367111,318.931061 176.878174,322.387878 172.196747,329.077698 
	C164.106461,340.638824 156.581131,352.593964 148.743698,364.333679 
	C141.677444,374.918304 135.469711,386.110870 126.728859,395.958862 
	C128.125427,397.835693 129.602951,400.029541 131.287079,402.051270 
	C143.164581,416.309845 155.050705,430.561646 167.025772,444.738129 
	C168.924454,446.985840 170.651443,449.834961 173.740768,450.476379 
	C185.887634,452.998322 198.049942,455.473114 210.266190,457.626953 
	C226.040268,460.408112 236.169159,449.127289 248.262039,442.726318 
	C247.134995,439.503967 245.408875,438.622070 242.761383,438.316376 
	C232.187698,437.095276 223.508224,432.485779 217.701584,423.259979 
	C212.489380,414.978668 207.389679,406.626373 202.154007,398.360046 
	C197.477066,390.975952 192.682205,383.666565 187.732773,376.004333 
	C184.101547,378.666779 181.034805,381.273285 177.300476,382.686920 
	C173.506546,384.123108 169.830338,383.640442 167.488342,380.180756 
	C165.189453,376.784790 164.733307,373.041260 168.168839,369.779785 
	C169.376999,368.632812 170.394592,367.221283 171.752396,366.306213 
	C179.641068,360.989899 184.301895,353.675262 185.901413,344.317932 
	C186.504471,340.789948 188.789520,338.361786 191.789871,336.666626 
	C199.375473,332.380829 212.288513,335.053558 217.550354,342.176392 
	C220.596405,346.299744 223.230499,350.730438 225.992432,355.059570 
	C227.810211,357.908844 230.306351,360.571930 233.647324,359.275024 
	C237.520203,357.771667 241.797882,356.070404 243.275620,351.282349 
	C243.786102,349.628357 243.260681,348.247589 242.503510,347.011078 
	C235.400635,335.411499 228.458160,323.702881 220.979752,312.348206 
	C216.516403,305.571350 208.811783,304.361511 201.597672,308.490875 
	C198.287491,310.385620 195.088684,312.474884 191.201782,314.839478 
M71.964371,423.470795 
	C58.102272,434.492859 44.856773,446.438110 30.179989,456.240356 
	C18.754124,463.871368 14.372623,472.862732 16.214506,486.047241 
	C17.029940,491.884277 17.023855,492.647003 22.940603,492.649445 
	C59.721199,492.664581 96.501808,492.660492 133.282410,492.651733 
	C137.711487,492.650696 142.896164,488.981506 144.326279,484.986664 
	C144.859970,483.495850 144.252594,482.465210 143.330566,481.393677 
	C139.443390,476.876068 135.603317,472.317993 131.733719,467.785187 
	C120.442131,454.558258 109.154175,441.328186 97.844536,428.116699 
	C93.692001,423.265778 89.482750,418.463440 85.130539,413.444244 
	C80.691879,416.907043 76.656448,420.055267 71.964371,423.470795 
M228.548340,386.257507 
	C223.270386,383.206116 218.718597,379.393280 216.478546,373.539093 
	C215.219528,370.248718 213.708679,367.048950 211.605972,364.344696 
	C208.472092,360.314301 207.309128,354.688995 202.083405,351.710480 
	C200.275604,356.166290 197.809067,359.837128 200.698105,364.353943 
	C210.977081,380.424377 221.115082,396.584930 231.388611,412.658905 
	C234.095078,416.893463 237.430252,420.465088 243.247833,421.113068 
	C243.558975,418.361237 246.918289,415.745636 243.344604,413.433228 
	C235.183304,408.152344 232.583466,400.344543 232.718384,391.260803 
	C232.759079,388.521332 231.395905,387.384583 228.548340,386.257507 
M277.727142,370.304260 
	C269.699158,375.238129 261.579285,380.030426 253.678925,385.160797 
	C249.201828,388.068176 248.292603,392.724854 250.829590,396.679016 
	C253.795044,401.300995 257.740143,402.324646 262.681610,399.447632 
	C270.546844,394.868317 278.370087,390.211395 286.106293,385.418182 
	C290.342346,382.793579 291.912903,378.062714 290.144348,374.432129 
	C287.709198,369.433167 283.961548,367.996185 277.727142,370.304260 
M295.725433,419.156860 
	C296.173920,418.940857 296.663422,418.782990 297.064636,418.500000 
	C301.688690,415.238220 302.895203,410.593781 300.200836,406.508789 
	C297.366577,402.211700 293.258148,401.411346 288.218475,404.335663 
	C280.638672,408.733948 273.082916,413.175293 265.570557,417.687622 
	C260.599915,420.673309 258.751862,425.943909 261.129486,429.863953 
	C264.153809,434.850067 268.851135,435.725464 274.404938,432.304169 
	C281.306335,428.052795 288.193634,423.778473 295.725433,419.156860 
M127.164436,423.337646 
	C122.243202,417.730103 117.273460,412.164185 112.415672,406.502167 
	C108.342728,401.754883 107.392616,401.806885 103.228760,407.970276 
	C120.228394,427.956635 137.348404,448.084503 154.401337,468.133484 
	C161.525482,464.565674 161.349426,464.033875 156.613983,458.589569 
	C146.721283,447.216064 137.213837,435.507446 127.164436,423.337646 
M116.571228,337.305115 
	C124.330063,334.324738 124.555954,333.833008 120.505463,327.132263 
	C115.104019,318.196625 109.648888,309.293060 104.153801,300.414734 
	C102.944931,298.461578 102.218102,295.193512 98.715782,297.356415 
	C95.543839,299.315308 92.129272,301.292969 94.934967,305.942444 
	C97.077003,309.492126 99.018120,313.182190 101.392891,316.568329 
	C106.218864,323.449677 108.964279,331.804657 116.571228,337.305115 
M259.454590,361.111267 
	C262.565552,359.242462 265.659149,357.344055 268.792145,355.512970 
	C272.118958,353.568634 272.994507,350.479858 272.545197,346.997742 
	C272.080963,343.399994 269.776947,341.034790 266.449432,339.803009 
	C262.814087,338.457275 258.733795,340.897400 259.558044,344.166534 
	C261.057373,350.113281 260.045898,355.530121 257.883148,361.048798 
	C257.146973,362.927246 258.658264,361.000031 259.454590,361.111267 
M244.085297,310.304016 
	C241.139084,310.875183 241.884903,312.740204 242.822235,314.382935 
	C244.614624,317.524139 246.502533,320.619232 248.511276,323.626251 
	C250.545227,326.671051 252.723694,325.870178 254.268143,323.237640 
	C256.131134,320.062164 256.578796,316.560699 254.079117,313.503601 
	C251.731262,310.632141 248.992844,308.101135 244.085297,310.304016 
z"/>
<path fill="#0000FF" opacity="1.000000" stroke="none" 
	d="
M513.000000,189.545898 
	C506.207520,196.162949 498.323608,192.255310 490.994324,192.043335 
	C482.424927,191.795471 473.906708,190.120667 465.337372,189.416733 
	C458.897736,188.887726 452.475861,188.339066 446.084503,187.369690 
	C440.205139,186.477966 437.341766,183.498245 437.698547,178.352158 
	C438.053619,173.230972 441.499573,170.329727 447.402740,170.738449 
	C454.664490,171.241241 461.902496,172.092422 469.148529,172.815079 
	C478.529419,173.750641 487.926575,174.558762 497.280487,175.715027 
	C502.437195,176.352448 508.009979,175.796478 512.653381,179.880432 
	C513.000000,183.030594 513.000000,186.061188 513.000000,189.545898 
z"/>
<path fill="#0000FF" opacity="1.000000" stroke="none" 
	d="
M394.472870,48.309990 
	C391.709442,55.638523 389.020966,62.582035 386.396393,69.549606 
	C384.339783,75.009491 379.476746,77.784569 374.770935,76.096458 
	C370.530609,74.575325 368.353851,69.163101 370.236145,63.889393 
	C372.464996,57.644741 375.038483,51.523434 377.445679,45.342068 
	C381.836578,34.066658 386.436432,22.865820 390.521301,11.480390 
	C393.272247,3.812964 397.818909,3.912343 402.941711,5.106759 
	C407.087067,6.073275 408.887421,11.588739 406.835449,16.984627 
	C402.891479,27.355808 398.677399,37.624268 394.472870,48.309990 
z"/>
<path fill="#0000FF" opacity="1.000000" stroke="none" 
	d="
M410.486389,131.755219 
	C406.326843,131.369598 404.541931,128.939758 403.820282,125.592461 
	C402.941193,121.514694 404.717346,118.304222 407.966492,116.141914 
	C413.621429,112.378563 419.468048,108.902077 425.253265,105.336082 
	C431.610535,101.417450 437.983246,97.523735 444.363586,93.642815 
	C445.633209,92.870567 446.914490,92.075272 448.282135,91.514137 
	C452.878815,89.628105 457.560394,90.696106 459.373444,93.939590 
	C461.702087,98.105339 460.568054,103.520500 456.287811,106.244736 
	C446.364929,112.560326 436.326660,118.698593 426.245605,124.759811 
	C422.556213,126.978058 419.229706,129.803452 415.148499,131.386978 
	C413.726929,131.938538 412.393951,132.574570 410.486389,131.755219 
z"/>
</svg>
